# Blender v2.79 (sub 0) OBJ File: 'forge.blend'
# www.blender.org
mtllib forge.mtl
o forge_Mesh1_Model
v 0.495297 1.971500 0.831452
v 0.048546 1.567250 0.831452
v 1.346780 1.567250 0.831452
v 0.953865 1.971500 0.831452
v 0.048546 1.567250 0.171170
v 0.008675 0.875392 0.171170
v 0.008675 0.875392 0.831452
v 0.008675 0.335670 0.171170
v 0.008675 0.335670 0.831452
v -0.033272 0.006738 0.109860
v -0.033272 0.006738 0.831452
v 1.359140 0.006738 0.831452
v 1.306910 0.335670 0.831452
v 1.306910 0.335670 0.171170
v 1.359140 0.006738 0.097234
v 1.306910 0.875392 0.171170
v 1.306910 0.875392 0.831452
v 1.346780 1.567250 0.171170
v 0.946297 1.971500 0.350174
v 1.122100 1.567250 0.034905
v 1.082230 0.875392 0.034905
v 0.233361 0.875392 0.034905
v 0.273233 1.567250 0.034905
v 0.502864 1.971500 0.350174
v 0.495297 3.996310 0.831453
v 0.502864 3.996310 0.350175
v 0.953865 3.996310 0.831453
v 0.946297 3.996310 0.350175
v 0.233361 0.388608 0.034905
v 0.233361 0.006738 -0.026405
v 0.337146 0.006738 -0.699395
v 0.337146 0.388608 -0.699395
v 0.335331 0.392862 0.232549
v 0.335331 0.751115 0.232549
v 0.980256 0.751115 0.232549
v 0.980256 0.392862 0.232549
v 1.082230 0.388608 0.034905
v 0.980256 0.293032 0.232549
v 0.335331 0.293032 0.232549
v 0.901406 0.392862 -0.597425
v 0.901406 0.293032 -0.597425
v 0.414181 0.392862 -0.597425
v 0.414181 0.293032 -0.597425
v 0.978441 0.388608 -0.699395
v 1.082230 0.006738 -0.039031
v 0.978441 0.006738 -0.699395
vt 0.061661 0.524609
vt -0.061366 0.410796
vt 0.299742 0.414773
vt 0.189212 0.526013
vt -0.177635 0.521973
vt -0.311520 0.520499
vt -0.311511 0.363683
vt -0.127841 0.363683
vt 0.253911 0.150134
vt 0.437581 0.150134
vt 0.437581 0.342906
vt 0.253911 0.342906
vt 0.253911 0.000000
vt 0.437581 0.000000
vt 0.236857 -0.092239
vt 0.437581 -0.092239
vt 0.307958 -0.019248
vt 0.292424 0.072085
vt -0.068684 0.068108
vt -0.079344 -0.023513
vt -0.127841 0.020777
vt -0.311511 0.020777
vt -0.311511 -0.071867
vt -0.107275 -0.071867
vt -0.127841 0.170912
vt -0.311511 0.170912
vt 0.180815 0.014726
vt 0.171299 -0.092437
vt 0.254581 -0.093801
vt -0.054833 0.360087
vt -0.051077 0.510797
vt -0.054833 0.167316
vt 0.180903 0.153730
vt 0.180903 0.346502
vt 0.250626 0.368454
vt 0.125338 0.492545
vt 0.079593 0.524806
vt 0.073390 1.088010
vt -0.060495 1.086540
vt -0.054293 0.523332
vt -0.445273 1.082300
vt -0.439071 0.519095
vt -0.317722 1.083700
vt -0.183837 1.085180
vt 0.002193 0.499642
vt 0.180815 0.150134
vt 0.183670 -0.000000
vt 0.204237 -0.092645
vt 0.287198 -0.070563
vt 0.251259 0.031491
vt 0.195271 -0.091499
vt 0.381218 -0.091499
vt 0.381218 0.014726
vt 0.174929 0.014769
vt 0.118951 0.115564
vt 0.118951 0.015909
vt 0.148849 0.090526
vt -0.030252 0.100847
vt 0.000353 0.030210
vt 0.005255 0.129744
vt -0.061495 0.032071
vt -0.198414 -0.089268
vt -0.184108 -0.113069
vt 0.014659 0.006409
vt 0.538178 0.043115
vt 0.538178 0.070885
vt 0.402647 0.070885
vt 0.402647 0.043115
vt 0.560348 0.273966
vt 0.532705 0.276620
vt 0.510536 0.045770
vt 0.559607 0.014726
vt 0.588678 0.218957
vt 0.190244 0.609654
vt 0.337774 0.530133
vt -0.135227 0.020959
vt 0.559607 -0.091499
vt -0.070337 0.218233
vt 0.290771 0.222210
vt 0.765897 0.014726
vt 0.749025 -0.091528
vt -0.299951 -0.404378
vt -0.299951 -0.649300
vt 0.140955 -0.649300
vt 0.140955 -0.404378
vt 0.140955 -0.336129
vt -0.299951 -0.336129
vt 0.087049 0.231287
vt -0.246045 0.231287
vt -0.200256 -0.305787
vt 0.201699 -0.305787
vt 0.195066 0.116074
vt -0.193623 0.116074
vn 0.0000 -0.0000 1.0000
vn 0.7132 0.7009 -0.0047
vn -0.9983 0.0575 0.0000
vn -1.0000 0.0000 0.0000
vn -0.9920 0.1265 0.0000
vn 0.9876 0.1568 0.0000
vn 1.0000 -0.0000 0.0000
vn 0.9983 -0.0575 -0.0000
vn -0.4919 0.1761 -0.8526
vn 0.3869 0.6658 -0.6380
vn 0.5183 -0.0299 -0.8547
vn 0.0000 0.0000 -1.0000
vn -0.5183 0.0299 -0.8547
vn -0.3738 0.6931 -0.6164
vn -0.9999 0.0000 -0.0157
vn 0.9999 0.0000 -0.0157
vn 0.0000 0.6150 -0.7885
vn -0.5186 0.0000 -0.8550
vn 0.4837 0.2122 -0.8491
vn 0.9890 0.0143 -0.1472
vn 0.8887 0.0000 -0.4585
vn 0.0000 -0.8466 -0.5323
vn -0.8887 0.0000 -0.4585
vn -0.9955 0.0000 0.0946
vn 0.9955 -0.0000 0.0946
vn 0.0000 0.9991 -0.0417
vn -0.0397 0.9992 -0.0046
vn -0.6673 0.7447 -0.0044
vn 0.5186 0.0000 -0.8550
vn -0.9892 0.0117 -0.1459
vn 0.0323 0.9995 -0.0025
vn 0.0397 0.9992 -0.0046
vn 0.0473 0.9989 -0.0068
vn 0.0000 1.0000 0.0000
usemtl stone
s 1
f 1/1/1 2/2/1 3/3/1 4/4/1
f 19/5/2 4/6/2 3/7/2 18/8/2
f 6/9/3 7/10/3 2/11/3 5/12/3
f 8/13/4 9/14/4 7/10/4 6/9/4
f 10/15/5 11/16/5 9/14/5 8/13/5
f 12/17/1 13/18/1 9/19/1 11/20/1
f 14/21/6 13/22/6 12/23/6 15/24/6
f 16/25/7 17/26/7 13/22/7 14/21/7
f 18/8/8 3/7/8 17/26/8 16/25/8
f 29/27/9 30/28/9 10/29/9 8/13/9
f 18/8/10 20/30/10 19/31/10
f 21/32/11 20/30/11 18/8/11 16/25/11
f 22/33/12 23/34/12 20/30/12 21/32/12
f 6/9/13 5/12/13 23/34/13 22/33/13
f 23/34/14 5/35/14 24/36/14
f 1/37/15 25/38/15 26/39/15 24/40/15
f 25/41/1 1/42/1 4/6/1 27/43/1
f 19/5/16 28/44/16 27/43/16 4/6/16
f 24/40/12 26/39/12 28/44/12 19/5/12
f 23/34/17 24/36/17 19/45/17 20/30/17
f 29/27/18 8/13/18 6/9/18 22/46/18
f 14/47/19 15/48/19 45/49/19 37/50/19
f 45/51/20 46/52/20 44/53/20 37/54/20
f 29/27/21 22/46/21 34/55/21 33/56/21
f 34/57/22 22/33/22 21/32/22 35/58/22
f 36/59/23 35/60/23 21/32/23 37/61/23
f 40/62/24 41/63/24 38/64/24 36/59/24
f 42/65/1 43/66/1 41/67/1 40/68/1
f 33/69/25 39/70/25 43/71/25 42/65/25
f 32/72/26 42/65/26 40/68/26 44/53/26
f 33/69/27 42/65/27 32/72/27 29/73/27
f 1/74/28 24/36/28 5/35/28 2/75/28
f 21/32/29 16/25/29 14/76/29 37/61/29
f 31/77/12 32/72/12 44/53/12 46/52/12
f 2/2/1 7/78/1 17/79/1 3/3/1
f 7/78/1 9/19/1 13/18/1 17/79/1
f 29/80/30 32/72/30 31/77/30 30/81/30
f 40/62/31 36/59/32 37/54/33 44/53/32
usemtl dkbrown
f 33/82/12 34/83/12 35/84/12 36/85/12 38/86/12 39/87/12
f 38/86/34 41/88/34 43/89/34 39/87/34
usemtl black
f 25/90/34 27/91/34 28/92/34 26/93/34
